<svg id="Layer_1" data-name="Layer 1" xmlns="http://www.w3.org/2000/svg" viewBox="0 0 200 200"><title>logo icon</title><rect x="11" y="7.17" width="179.19" height="185.83" rx="8.29" style="fill:#119dff"/><ellipse cx="116.88" cy="83.19" rx="8.14" ry="8.45" style="fill:#25fefd"/><ellipse cx="149.46" cy="49.4" rx="8.14" ry="8.45" style="fill:#25fefd"/><ellipse cx="116.88" cy="49.4" rx="8.14" ry="8.45" style="fill:#25fefd"/><ellipse cx="84.3" cy="49.4" rx="8.14" ry="8.45" style="fill:#25fefd"/><ellipse cx="51.72" cy="49.4" rx="8.14" ry="8.45" style="fill:#25fefd"/><ellipse cx="51.72" cy="83.19" rx="8.14" ry="8.45" style="fill:#25fefd"/><path d="M51.72,108.53A8.3,8.3,0,0,0,43.58,117v33.79a8.15,8.15,0,1,0,16.29,0V117A8.3,8.3,0,0,0,51.72,108.53Z" style="fill:#fff"/><path d="M116.88,108.53a8.29,8.29,0,0,0-8.14,8.45v33.79a8.15,8.15,0,1,0,16.29,0V117A8.3,8.3,0,0,0,116.88,108.53Z" style="fill:#fff"/><path d="M84.3,74.74a8.3,8.3,0,0,0-8.14,8.45v67.58a8.15,8.15,0,1,0,16.29,0V83.19A8.3,8.3,0,0,0,84.3,74.74Z" style="fill:#fff"/><path d="M149.46,74.74a8.29,8.29,0,0,0-8.14,8.45v67.58a8.15,8.15,0,1,0,16.29,0V83.19A8.3,8.3,0,0,0,149.46,74.74Z" style="fill:#fff"/></svg>